<svg xmlns="http://www.w3.org/2000/svg" id="svg4173" version="1.1" xml:space="preserve" width="282.496" height="80.608"><defs id="defs4177"><clipPath clipPathUnits="userSpaceOnUse" id="clipPath4231"><path d="M21.596 21.864h64.699v67.23H21.596v-67.23z" id="path4233"/></clipPath><clipPath clipPathUnits="userSpaceOnUse" id="clipPath4243"><path d="M20.331 19.935h67.266v72.624H20.331V19.935z" id="path4245"/></clipPath><clipPath clipPathUnits="userSpaceOnUse" id="clipPath4415"><path d="M21.596 21.864h64.699v67.23H21.596v-67.23z" id="path4417"/></clipPath><clipPath clipPathUnits="userSpaceOnUse" id="clipPath4431"><path d="M20.331 19.935h67.266v72.624H20.331V19.935z" id="path4433"/></clipPath><clipPath clipPathUnits="userSpaceOnUse" id="clipPath4451"><path d="M21.596 21.864h64.699v67.23H21.596v-67.23z" id="path4453"/></clipPath><clipPath clipPathUnits="userSpaceOnUse" id="clipPath4467"><path d="M20.331 19.935h67.266v72.624H20.331V19.935z" id="path4469"/></clipPath><clipPath clipPathUnits="userSpaceOnUse" id="clipPath5327"><path d="M21.596 21.864h64.699v67.23H21.596v-67.23z" id="path5329"/></clipPath><clipPath clipPathUnits="userSpaceOnUse" id="clipPath5343"><path d="M20.331 19.935h67.266v72.624H20.331V19.935z" id="path5345"/></clipPath><clipPath clipPathUnits="userSpaceOnUse" id="clipPath5343-4"><path d="M20.331 19.935h67.266v72.624H20.331V19.935z" id="path5345-2"/></clipPath><clipPath clipPathUnits="userSpaceOnUse" id="clipPath5327-1"><path d="M21.596 21.864h64.699v67.23H21.596v-67.23z" id="path5329-6"/></clipPath><clipPath clipPathUnits="userSpaceOnUse" id="clipPath4467-1"><path d="M20.331 19.935h67.266v72.624H20.331V19.935z" id="path4469-8"/></clipPath><clipPath clipPathUnits="userSpaceOnUse" id="clipPath4451-2"><path d="M21.596 21.864h64.699v67.23H21.596v-67.23z" id="path4453-7"/></clipPath><clipPath clipPathUnits="userSpaceOnUse" id="clipPath4431-4"><path d="M20.331 19.935h67.266v72.624H20.331V19.935z" id="path4433-7"/></clipPath><clipPath clipPathUnits="userSpaceOnUse" id="clipPath4415-5"><path d="M21.596 21.864h64.699v67.23H21.596v-67.23z" id="path4417-7"/></clipPath><clipPath clipPathUnits="userSpaceOnUse" id="clipPath4243-4"><path d="M20.331 19.935h67.266v72.624H20.331V19.935z" id="path4245-0"/></clipPath><clipPath clipPathUnits="userSpaceOnUse" id="clipPath4231-2"><path d="M21.596 21.864h64.699v67.23H21.596v-67.23z" id="path4233-6"/></clipPath><clipPath id="clipPath4178" clipPathUnits="userSpaceOnUse"><path id="path4180" d="M0 0h71.998v72.002H0V0Z"/></clipPath><clipPath id="clipPath4206" clipPathUnits="userSpaceOnUse"><path id="path4208" d="M960.36 346.28h221.279v220.8H960.36v-220.8z"/></clipPath><clipPath id="clipPath4530" clipPathUnits="userSpaceOnUse"><path id="path4532" d="M0 0h1287v648H0V0Z"/></clipPath><clipPath id="clipPath4626" clipPathUnits="userSpaceOnUse"><path id="path4628" d="M0 0h1287v648H0V0Z"/></clipPath><clipPath id="clipPath4726" clipPathUnits="userSpaceOnUse"><path id="path4728" d="M0 0h1287v648H0V0Z"/></clipPath><clipPath id="clipPath4818" clipPathUnits="userSpaceOnUse"><path id="path4820" d="M0 0h1287v648H0V0Z"/></clipPath><clipPath id="clipPath5650" clipPathUnits="userSpaceOnUse"><path id="path5652" d="M459 35.041h41.728v180.42H459V35.041z"/></clipPath><clipPath id="clipPath5686" clipPathUnits="userSpaceOnUse"><path id="path5688" d="M459 38.723h36.028v175.013H459V38.723z"/></clipPath><clipPath id="clipPath5702" clipPathUnits="userSpaceOnUse"><path id="path5704" d="M459 35.041h41.728v180.42H459V35.041z"/></clipPath><clipPath id="clipPath4206-8" clipPathUnits="userSpaceOnUse"><path id="path4208-1" d="M960.36 346.28h221.279v220.8H960.36v-220.8z"/></clipPath><clipPath clipPathUnits="userSpaceOnUse" id="clipPath18"><path d="M73.292 443.052c0-48.162 39.042-87.206 87.204-87.206 48.164 0 87.206 39.044 87.206 87.206 0 48.163-39.042 87.208-87.206 87.208-48.162 0-87.204-39.045-87.204-87.208m15.193 0c0 39.772 32.239 72.014 72.011 72.014s72.013-32.242 72.013-72.014c0-39.769-32.241-72.013-72.013-72.013-39.772 0-72.011 32.244-72.011 72.013" id="path16"/></clipPath><clipPath clipPathUnits="userSpaceOnUse" id="clipPath48"><path d="M95.867 433.685a461.505 461.505 0 0 1 64.994-4.58c22.064 0 43.766 1.561 64.997 4.58a462.266 462.266 0 0 1-64.997 4.576 462.255 462.255 0 0 1-64.994-4.576" id="path46"/></clipPath><clipPath clipPathUnits="userSpaceOnUse" id="clipPath82"><path d="M0 841.89h595.275V0H0Z" id="path80"/></clipPath><clipPath clipPathUnits="userSpaceOnUse" id="clipPath384"><path d="M0 841.89h595.275V0H0Z" id="path382"/></clipPath><linearGradient x1="0" y1="0" x2="1" y2="0" gradientUnits="userSpaceOnUse" gradientTransform="translate(73.254 443.063) scale(174.40918)" spreadMethod="pad" id="linearGradient38"><stop style="stop-opacity:1;stop-color:#69c5f0" offset="0" id="stop24"/><stop style="stop-opacity:1;stop-color:#69c5f0" offset=".05" id="stop26"/><stop style="stop-opacity:1;stop-color:#3f88d0" offset=".382" id="stop28"/><stop style="stop-opacity:1;stop-color:#3f88d0" offset=".5" id="stop30"/><stop style="stop-opacity:1;stop-color:#2c61b5" offset=".732" id="stop32"/><stop style="stop-opacity:1;stop-color:#2c61b5" offset=".95" id="stop34"/><stop style="stop-opacity:1;stop-color:#2c61b5" offset="1" id="stop36"/></linearGradient><linearGradient x1="0" y1="0" x2="1" y2="0" gradientUnits="userSpaceOnUse" gradientTransform="translate(95.844 433.657) scale(129.98975)" spreadMethod="pad" id="linearGradient68"><stop style="stop-opacity:1;stop-color:#69c5f0" offset="0" id="stop54"/><stop style="stop-opacity:1;stop-color:#69c5f0" offset=".05" id="stop56"/><stop style="stop-opacity:1;stop-color:#3f88d0" offset=".382" id="stop58"/><stop style="stop-opacity:1;stop-color:#3f88d0" offset=".5" id="stop60"/><stop style="stop-opacity:1;stop-color:#2c61b5" offset=".732" id="stop62"/><stop style="stop-opacity:1;stop-color:#2c61b5" offset=".95" id="stop64"/><stop style="stop-opacity:1;stop-color:#2c61b5" offset="1" id="stop66"/></linearGradient><linearGradient x1="0" y1="0" x2="1" y2="0" gradientUnits="userSpaceOnUse" gradientTransform="translate(366.206 433.53) scale(129.9883)" spreadMethod="pad" id="linearGradient374"><stop style="stop-opacity:1;stop-color:#69c5f0" offset="0" id="stop360"/><stop style="stop-opacity:1;stop-color:#69c5f0" offset=".05" id="stop362"/><stop style="stop-opacity:1;stop-color:#3f88d0" offset=".382" id="stop364"/><stop style="stop-opacity:1;stop-color:#3f88d0" offset=".5" id="stop366"/><stop style="stop-opacity:1;stop-color:#2c61b5" offset=".732" id="stop368"/><stop style="stop-opacity:1;stop-color:#2c61b5" offset=".95" id="stop370"/><stop style="stop-opacity:1;stop-color:#2c61b5" offset="1" id="stop372"/></linearGradient><pattern id="pattern4182" height="72.002" width="71.998" y="0" x="0" patternUnits="userSpaceOnUse" patternTransform="translate(1163.92 290.665) scale(1.00142)"><g id="g4184"><g id="g4186" clip-path="url('#clipPath4178')"><g id="g4188" transform="translate(68.498 65)"><path id="path4190" style="fill:none;stroke:#231f20;stroke-opacity:1;stroke-width:.25px;stroke-linecap:butt;stroke-linejoin:miter;stroke-miterlimit:4;stroke-dasharray:none" d="M0 0h14.666M-1.667-6.666H13M1.833 6.836H16.5M2.833-23.998H17.5M7.334 4.168H-7.334m18.168-5.5H-3.834m-3.167-8.174H7.665M-3.334-58.508h14.667m-18.334-4.666H7.666m-9.333 2H13m-19.334 5H8.333m-10 8.668H13M-5.001-51.84H9.666M8.5-16.33H-6.166M9-19.83H-5.666m17.666-2H-2.666m.332 10.166h14.668M8.166-25.84H-6.5m18.666-2H-2.5m9-2.332H-8.166m2.832-14.334H9.334m-12.668 4.334h14.667M-3.334-34.84h14.667m-12-2.666h14.666m-12.666 5h14.666m-74.831 33.84v-14.666m2.5 11.666v-14.668m-3.666 5.002v-14.666m7.334 14.332v-14.668m-9.668 21.668v-14.668m12 17.668v-14.668m5.5 14.668v-14.668m1.334 11.002v-14.666m-3.834 23.832v-14.666m-6.5 12.666v-14.666m-13.5 8.834h14.668M-71.998 0h14.666m-16.334-6.666h14.668m3.666 6.334h14.668m-19.834-1.834h14.666m-11-8.174h14.668m-21.334 2.508h14.668M-29.997-3v-14.664M-32.498-6v-14.664m6.001 11.666v-14.666m1.334 7.33v-14.664m1.334 22v-14.666M-38.498-6v-14.664M-48.664-9.332v-14.666M-40.164.5v-14.664M-41.83 3.834v-14.666m6.832 9.666v-14.668m8.501 8.17h-14.667m6.334 1.998h-14.668m23.501-5.498h-14.667m9-3.842h-14.668m23.335 1.842h-14.667M2.342 5.834V-8.832M-2.332 5.834V-8.832m-7.834 14.666V-8.832m17.5 13H-7.332m13.166-2.5H-8.832M1.834-2.84h-14.666m6.666 1.332h-14.666m31.666.176H-3.832M-26.997 4.5v-14.666m4.5 11.666v-14.666m-6 11.666v-14.664m12.665 18.33v-14.664m9.5 10.666v-14.666m-7.168 23.5V-7.666M-18.334 6V-8.666M-28.666 4.668H-14m-7.497-1.834h14.665m-23-1.666h14.666m-13.831-4.834h14.665m-9-4.84h14.666m-11 2h14.669m-27.001.84h14.666m-19.666 11V-9.332m-1.668 15.334V-8.664m-6 13.998V-9.332m-21.832-22.002v-14.664m-.5 31.164v-14.664m1.166 26.666v-14.666m-2 17.166v-14.666m-2.334 21.834h14.668m-6.334-1.668h14.666m-20.166-2.5h14.666m7.334-.666h14.666m-19.666 1.332h14.666m-12.666 2.668h14.666M-43-2.332h14.668m1.5-14.84h-14.666m18.666-2h-14.666m9.001-2.334h-14.667m-7.168-5.828v-14.664m3.5 8.664v-14.664m-5.666 18.334h-14.666m25.666-4h-14.668m9.834-1.834h-14.666m17.666-2h-14.666m27.501 19v-14.666m1.334 8.83v-14.664m-16.169 19.164v-14.664m3.166 20v-14.666m5.334 6.33v-14.664m3 20.164v-14.664m-1.666 15v-14.666m-4.834 12.33v-14.664m-3.334 1.158h14.669m-12.001-1.332h14.666m-12 2.666h14.666m-14.666 5.334h14.666m-12-2.668H-21m-1.334 2.668h14.667m-25.999 2.332H-19M-7.001-9.506H7.666m-30.666-7h14.666M-25-14.172h14.666m-41.998-15.826h14.666m-14.334 2h14.668m-.834-10.842h-14.666m6.332 25.006v-14.664m-2.166 18.166v-14.666m-9 6h14.668m-21.668 1.334h14.668m-13.002 2h14.668m-16 2.666h14.668m-5.334 0h14.666m-21.166-23.67v-14.666m2.5 11.666v-14.666m-3.666 5V-64m-3 17.002v-14.67m10.334 12v-14.666m2.332 24.666v-14.666m9.5 23.004v-14.668M-10-53v-14.666m2.834 27.332V-55m-3.334-2h-14.666M-6-61.166h-14.666m12-2h-14.666m18.666 3.668h-14.666m14.332 14v-14.668M-8.5-51.5v-14.666m-11.334 25.332V-55.5M-21.5-43.498v-14.668m-2 8.832V-64m22.166 16.668V-62M.333-41.332V-56m2.333 17.002v-14.668m-6-4.842h14.668M-7-63.174H7.666m-9.332 2H13m-19.334 5H8.334m-17.668 6.668H5.334m-7 2H13M-5-51.84H9.666M-3.166-57v-14.666m4.334 17.334V-69m-66.166 27.666h14.668m-10-19.332h14.666m-17.834 16.832h14.668m-10.668-4.506h14.668m-3.668 3h14.668m-33.834-.158h14.668m2.166.5v-14.668m14.666 17.002H-50.83m16.5-10.344h-14.668m16.334-1.666h-14.668m13.17 5H-48.83m19.334 2.668h-14.668m-5.002-4.828V-66.5m-6.832 35.502v-14.666m-1.666 20v-14.67m3 17.67v-14.67m-5.334 13v-14.664m-3.666 13.664v-14.664m2 19.334v-14.67M-60.332-57h14.668M-67.5-55.334h14.668m-12.834 1.668h14.668m12 10.668v-14.67m-3.01 21.67v-14.668m-.656-2.002v-14.666M-35.33-53v-14.668m-9.668 21.67v-14.67m12 17.67v-14.67m-4.5 5.834v-14.668m-3 18.668V-62.5m.168-1.5h14.667m-12.667 2.334h14.667m-7.667 10.998v-14.666m-4.668 27V-53m22.498 2.332v-14.666m-7 6.666v-14.666m-13.832 39.67v-14.67m-6-12h14.669M-47.332-59h14.668m-22.668-3.334h14.668"/></g><g id="g4192" transform="translate(7.832 1.332)"><path id="path4194" style="fill:none;stroke:#231f20;stroke-opacity:1;stroke-width:.25px;stroke-linecap:butt;stroke-linejoin:miter;stroke-miterlimit:4;stroke-dasharray:none" d="M0 0h14.668M15 6.668h14.669m-36.001 6H8.336m-5.334 0h14.666m-9 27.16h14.666M0 42.67h14.668m-15.834-5.336h14.668M-8.5 39.67H6.168m33.166 13.666V38.67M43 43.334V28.67m1.992 21.998V36m5.842 17.336V38.67m1.332 11V35.004m-3.832 23.832V44.17m-7.5 12.666V42.17m-2 2.492H53.5M32.503 22.334V7.668M33.837 15V.334m-3.333 25V10.668m4.666 11.666V7.668m21.999 41.336v-14.67M47 45.67V31.004m8.5 24.498V40.834m3.669 19.336V45.504m1.507 12.498V43.338m1.993 9.832V38.504m6.5 8.834H54.5m7.669 2.998H47.5m9.003 2.334H41.834m19 6.334H46.169m23.5-15.166H55m9-3.842H49.334m23.335 1.842H58m-23.997-6.004V21.17m2.5 11.664V18.17m15.331 11.664V15.17M39.003 36.334V21.67m-9 6h14.666m-9-4.842h14.665m8 29.176H73m-4.166-14.176H54.166m18.668-2H58.166m9.003-2.332H52.5m-7.166-5.826V13.002m3.5 8.668V7.002m-4 7V-.664M42.5 16.334V1.668m9.834 15.836H37.669m6.665 2.666H29.669m4.334 3H19.334m24.832 15.664V24.17M31.169 7.002V-7.666m25.997 31.5V9.168M50.332 35.17V20.504m3.167 20V25.838m-6.667 3.332V14.504m12 17.666V17.504m3 20.166V23.004m-1.666 15v-14.67M55.332 35.67V21.004M52 22.162h14.666m-11.332-3H70m-12.668 4.334H72m-14.668 5.332H72m-12.001-2.666h14.667m-12.667 5h14.667M30.334 8.828H45m-10.334 2.666h14.666M34 16.162h14.666m-30.332 10h14.669m10.329-1.158H58m-14.334 2h14.666M49.166 41.17V26.504M47 44.67V30.004M40.666 39V24.334m-2.666 9h14.666m-12 8.67h14.668M43.666 31.162h14.668m2.332 32.506h14.668M59 57.002h14.666M-3.998 67.836h-14.668m18.168-5.5h-14.668m-3.168-8.174h14.666M-14.666 5.16H0M-18.334.494h14.668m-9.334 2H1.668m-19.334 5H-3m-10 8.668H1.668m-18.002-4.334h14.668m-1.166 35.51h-14.666m15.166-3.5h-14.666m17.666-2h-14.666m.332 10.166H1.002m-4.168-14.176h-14.666m18.666-2h-14.666m9-2.332h-14.666m2.832-14.334h14.668m-12.668 4.334H0m-14.666 5.332H0m-12-2.666H2.666m-12.666 5H4.666m.502-25.328V-8.834M2.502 8.168V-6.5M55.5 2.334v-14.666M53 3v-14.666m-23.331 14v-14.666M60.834 2.334v-14.666m-25.5 16.5V-10.5M9 3.002v-14.668M-6 3.168V-11.5m5 16.668V-9.5M27.002 2.334v-14.666m23.664 23V-3.998m-25.33 14.666V-4M-3.998 67.836h-14.666m13.166-2.5h-14.666m19.666-3h-14.666m-3.17-8.174h14.668m-11-49.002H.002M-18.332.494h14.666m-9.332 2H1.668m-19.334 5h14.668m-17.668 6.668h14.668m-7 2H1.668m-18-4.334h14.666m-1.164 35.51h-14.668m15.168-3.5h-14.668m17.668-2h-14.668m.334 10.166H1.002m-4.166-14.176h-14.668m18.668-2h-14.668m9.002-2.332h-14.668m-.5-11.334h14.666m-11.332-3h14.666m-12.668 4.334H.002m-14.668 5.332H.002M-12 26.162H2.668m-12.668 5H4.668m-16 32.506H3.336m-16.334-6.666H1.668M50.666 82.67V68.004m1.5 16.166V69.504M57.5 78.67V64.004m4.334 17.334V66.67M11.5 83.836V69.17m6.502 13.832V68.336m7.334 14.334V68.002m-2.168 15.834V69.168m6.168 15.834V70.336m17.83 14.666V70.336m-7 6.666V62.336m-8.997 16.668V64.336m-26.001 13.5V63.168M2.502 80.17V65.502M55.5 74.336V59.67M53 75.002V60.336m-23.331 14V59.67m31.165 14.666V59.67m-25.5 16.5V61.502M9 75.004V60.336M-6 75.17V60.502m5 16.668V62.502m28.002 11.834V59.67m23.664 23V68.004M25.336 82.67V68.002"/></g></g></g></pattern></defs><g id="g4181" transform="matrix(1.25 0 0 -1.25 218.56 338.1)"><g id="g5862" transform="matrix(1.61137 0 0 1.61137 37.813 -145.65)"><g id="g5853"><path id="path334" style="fill:#1f4899;fill-opacity:1;fill-rule:nonzero;stroke:none" d="M-65.038 233.674h6.38v24.005h-6.38z"/><g transform="matrix(1.0484 0 0 1.0484 -30.94 257.68)" id="g336"><path id="path338" style="fill:#1f4899;fill-opacity:1;fill-rule:nonzero;stroke:none" d="M0 0v-4.771h7.656v-18.126h6.084v18.126h7.655V0z"/></g><g transform="matrix(1.0484 0 0 1.0484 -39.827 248.177)" id="g340"><path id="path342" style="fill:#1f4899;fill-opacity:1;fill-rule:nonzero;stroke:none" d="M0 0h-5.086c-1.352 0-2.445.559-2.445 2.146 0 1.592 1.093 2.147 2.445 2.147H5.85v4.77H-5.807c-4.351 0-7.881-2.512-7.881-6.917 0-4.404 3.53-6.916 7.881-6.916h5.233c1.349 0 2.445-.558 2.445-2.15 0-1.588-1.096-2.144-2.445-2.144h-12.27v-4.77H0c4.354 0 7.879 2.508 7.879 6.914C7.879-2.52 4.354 0 0 0"/></g><g transform="matrix(1.0484 0 0 1.0484 -84.46 257.68)" id="g344"><path id="path346" style="fill:#1f4899;fill-opacity:1;fill-rule:nonzero;stroke:none" d="m0 0-8.607-20.603-8.205 9.153L-6.553 0h-6.949l-9.723-10.87V0h-6.087v-22.897h6.087v10.869l9.723-10.869h10.121L3.588-5.63 8.65-18.323H.604l1.912-4.574h14.226L7.176 0Z"/></g></g><g transform="matrix(1.0484 0 0 1.0484 -513.892 -230.964)" id="g356"><g id="g358"><path d="M366.177 433.572a461.512 461.512 0 0 1 64.996-4.58c22.063 0 43.762 1.561 64.992 4.58a462.045 462.045 0 0 1-64.992 4.577 462.112 462.112 0 0 1-64.996-4.577" style="fill:url(#linearGradient374);stroke:none" id="path376"/></g></g></g></g></svg>